<svg width="136" height="30" viewBox="0 0 288 90" xmlns="http://www.w3.org/2000/svg" xmlns:xlink="http://www.w3.org/1999/xlink"><title>edpanel</title><defs><path id="a" d="M47.333 211.667h285.334v-88H47.333v88z"/></defs><g transform="matrix(1 0 0 -1 -46 214)" fill="none" fill-rule="evenodd"><mask id="b" fill="#fff"><use xlink:href="#a"/></mask><g mask="url(#b)"><path d="M154.46 171.145c.75-.25 1.622-.25 2.62-.25 8.228 0 11.968 5.86 11.968 13.715 0 7.355-2.992 13.09-10.598 13.09-1.496 0-2.992-.25-3.99-.623v-25.932zm-16.33 38.15c4.61.998 10.846 1.62 17.08 1.62 9.723 0 17.328-1.37 22.815-6.482 4.987-4.364 7.23-11.346 7.23-18.452 0-9.1-2.743-15.46-7.106-20.197-5.237-5.485-13.716-7.978-20.448-7.978h-3.24V126.51h-16.333v82.785zM209.513 152.533c-4.81-.11-11.37-1.64-11.37-9.075 0-5.357 2.95-7.325 5.137-7.325 2.297 0 4.92 1.422 5.905 4.592.22.765.328 1.64.328 2.514v9.293zm1.968-26.023l-.766 5.25h-.218c-2.95-4.155-7.107-6.123-11.807-6.123-8.093 0-14.105 6.778-14.105 16.29 0 13.995 12.353 19.79 24.49 19.9v1.202c0 4.153-2.514 7.215-7.543 7.215-4.266 0-7.763-1.094-10.935-3.062l-2.623 9.622c2.952 1.75 9.183 4.045 16.62 4.045 16.29 0 18.914-11.37 18.914-22.195v-19.898c0-4.264.217-8.638.873-12.247h-12.9zM229.63 163.904c0 5.904-.33 11.042-.438 16.072h12.354l.658-6.123h.218c2.843 4.264 7.435 6.997 13.01 6.997 10.17 0 14.214-8.09 14.214-20.008V126.51h-14.322v33.458c0 4.592-1.094 8.856-5.25 8.856-2.404 0-4.372-1.64-5.357-4.81-.437-1.094-.765-2.844-.765-4.92V126.51H229.63v37.394zM300.37 158.218c0 6.888-1.75 12.245-6.016 12.245-4.7 0-6.56-6.888-6.67-12.245h12.685zm-12.795-10.06c.22-8.308 5.03-11.37 11.372-11.37 4.046 0 7.654.875 10.168 1.75l1.967-10.277c-3.716-1.422-9.293-2.406-14.76-2.406-14.54 0-22.523 9.623-22.523 26.35 0 17.93 9.293 28.646 21.43 28.646 11.48 0 18.15-9.075 18.15-25.256 0-3.827-.11-5.904-.438-7.435h-25.367zM317.423 202.17h14.322v-75.66h-14.322v75.66zM82.03 163.2H63.718v-22.69H84.41V126.3H48.14v84.023h34.847V196.11H63.717V176.79H82.03V163.2zM118.768 164.733c-.713.25-1.546.25-2.497.25-7.848 0-11.416-5.86-11.416-13.714 0-7.356 2.854-13.09 10.108-13.09 1.426 0 2.853.248 3.806.622v25.93zm15.58-38.147c-4.4-.997-10.348-1.62-16.293-1.62-9.276 0-16.532 1.37-21.764 6.482-4.756 4.362-6.896 11.344-6.896 18.45 0 9.1 2.616 15.458 6.778 20.196 4.995 5.484 13.08 7.978 19.503 7.978h3.093v31.29h15.58v-82.776z" fill="#969595"/></g></g></svg>